<svg id="Layer_1" xmlns="http://www.w3.org/2000/svg" viewBox="0 0 215.4 28.5"><style>.st0{fill:#ECF0F1;}</style><path class="st0" d="M0 20.1V7.3h1.5v11.5h5.7v1.4H0zM16.5 20.1H9.3V7.3h7.2v1.3h-5.7v4.1h5.3V14h-5.3v4.7h5.7v1.4zM25 13.4h4.4v6.2c-.7.2-1.4.4-2.1.5-.7.1-1.5.2-2.4.2-1.9 0-3.5-.6-4.5-1.7s-1.6-2.8-1.6-4.9c0-1.3.3-2.5.8-3.5s1.3-1.8 2.3-2.3c1-.5 2.2-.8 3.5-.8 1.4 0 2.6.3 3.8.8l-.6 1.3c-1.2-.5-2.3-.7-3.3-.7-1.6 0-2.8.5-3.7 1.4-.9.9-1.3 2.2-1.3 3.9 0 1.7.4 3 1.3 3.9.8.9 2.1 1.3 3.7 1.3.9 0 1.8-.1 2.6-.3v-4H25v-1.3zM40.3 20.1h-7.2V7.3h7.2v1.3h-5.7v4.1H40V14h-5.3v4.7h5.7v1.4zM53.2 20.1h-1.7l-7-10.8h-.1c.1 1.3.1 2.4.1 3.5v7.3h-1.4V7.3h1.7l7 10.7h.1c0-.2 0-.7-.1-1.5 0-.9-.1-1.5 0-1.8V7.3h1.4v12.8zM67 13.6c0 2.1-.6 3.7-1.7 4.9-1.2 1.1-2.8 1.7-5 1.7h-3.6V7.3h3.9c2 0 3.5.6 4.7 1.7 1.1 1.1 1.7 2.6 1.7 4.6zm-1.6 0c0-1.7-.4-2.9-1.3-3.8-.8-.8-2.1-1.2-3.7-1.2h-2.2v10.3H60c1.8 0 3.1-.4 4-1.3 1-.9 1.4-2.2 1.4-4zM77.9 20.1L76.3 16h-5.1l-1.6 4.1h-1.5l5.1-12.9h1.3l5.1 12.9h-1.7zm-2-5.4l-1.5-4c-.2-.5-.4-1.1-.6-1.9-.1.6-.3 1.2-.6 1.9l-1.5 4h4.2zM82.7 14.8v5.3h-1.5V7.3h3.5c1.6 0 2.7.3 3.5.9.8.6 1.1 1.5 1.1 2.7 0 1.7-.9 2.8-2.6 3.4l3.5 5.8h-1.8l-3.1-5.3h-2.6zm0-1.3h2c1.1 0 1.8-.2 2.3-.6.5-.4.7-1 .7-1.9 0-.8-.3-1.5-.8-1.8-.5-.4-1.3-.6-2.4-.6h-1.9v4.9zM99 7.3l-3.4 6.4-3.4-6.4h-1.6l4.3 7.9v4.9h1.5v-4.9l3-5.6h5.1v10.5h2.7V9.6h3.5V7.3zM124.4 13.7c0 2.1-.5 3.8-1.6 4.9-1.1 1.1-2.6 1.7-4.5 1.7-2 0-3.5-.6-4.5-1.7-1.1-1.1-1.6-2.8-1.6-4.9s.5-3.8 1.6-4.9c1.1-1.1 2.6-1.7 4.5-1.7 2 0 3.5.6 4.5 1.7s1.6 2.8 1.6 4.9zm-9.4 0c0 1.4.3 2.5.8 3.2.5.7 1.4 1.1 2.4 1.1 2.2 0 3.3-1.4 3.3-4.3s-1.1-4.3-3.2-4.3c-1.1 0-1.9.4-2.5 1.1-.5.7-.8 1.8-.8 3.2zM138.4 20.1h-3.5l-5.6-9.7h-.1c.1 1.7.2 2.9.2 3.7v6H127V7.3h3.4l5.6 9.6h.1c-.1-1.7-.1-2.8-.1-3.5V7.3h2.5v12.8zM149 20.1h-7.4V7.3h7.4v2.2h-4.7v2.8h4.3v2.2h-4.3v3.3h4.7v2.3zM159.3 16.6c0 1.2-.4 2.1-1.3 2.7-.8.7-2 1-3.5 1-1.4 0-2.6-.3-3.6-.8V17c.9.4 1.6.7 2.2.8.6.2 1.1.2 1.6.2.6 0 1.1-.1 1.4-.3.3-.2.5-.6.5-1 0-.3-.1-.5-.2-.7-.1-.2-.3-.4-.6-.6-.3-.2-.8-.5-1.7-.9-.8-.4-1.4-.7-1.8-1.1-.4-.3-.7-.7-.9-1.2-.2-.5-.4-1-.4-1.6 0-1.1.4-2 1.2-2.7.8-.7 1.8-1 3.2-1 .7 0 1.3.1 1.9.2.6.2 1.2.4 1.9.7l-.9 2.1c-.7-.3-1.3-.5-1.7-.6-.4-.1-.9-.2-1.3-.2-.5 0-.9.1-1.2.4-.3.2-.4.6-.4.9 0 .2.1.4.2.6.1.2.3.4.5.5.2.2.8.5 1.7.9 1.2.6 2 1.1 2.5 1.7.5.9.7 1.6.7 2.5z"/><g><circle class="st0" cx="178.9" cy="10" r="1.9"/><circle class="st0" cx="199.8" cy="16.5" r="1.9"/><circle class="st0" cx="192.8" cy="14.3" r="1.9"/><circle class="st0" cx="171.9" cy="7.8" r="1.9"/><circle class="st0" cx="185.8" cy="12.1" r="1.9"/><path class="st0" d="M210.6 16c-.3-.1-.7-.3-1.3-.4l.4-1.3c1.1.2 2.1-.3 2.4-1.1.3-1-.4-2.1-1.7-2.5-1.2-.4-2.5 0-2.9 1-.3.8.2 1.8 1.2 2.3l-.4 1.3c-1.5-.5-3.5-1.1-5.8-1.8l.4-1.2c1.1.2 2.1-.3 2.4-1.1.3-1-.4-2.1-1.7-2.5-1.2-.4-2.5 0-2.9 1-.3.8.2 1.8 1.2 2.3l-.4 1.2c-1.8-.6-3.8-1.2-5.8-1.8l.4-1.2c1.1.2 2.1-.3 2.4-1.1.3-1-.4-2.1-1.7-2.5-1.2-.4-2.5 0-2.9 1-.3.8.2 1.8 1.2 2.3l-.4 1.2c-1.9-.6-3.9-1.2-5.8-1.8l.4-1.2c1.1.2 2.1-.3 2.4-1.1.3-1-.4-2.1-1.7-2.5s-2.5 0-2.9 1c-.3.8.2 1.8 1.2 2.3l-.4 1.2c-2-.6-4-1.2-5.8-1.8l.4-1.2c1.1.2 2.1-.3 2.4-1.1.3-1-.4-2.1-1.7-2.5-1.2-.4-2.5 0-2.9 1-.3.8.2 1.8 1.2 2.3l-.4 1.2c-2.1-.8-4.1-1.4-5.8-1.9l.4-1.2c1.1.2 2.1-.3 2.4-1.1.3-1-.4-2.1-1.7-2.5-1.2-.4-2.5 0-2.9 1-.3.8.2 1.8 1.2 2.3l-.4 1.2c-2.9-.9-4.8-1.5-4.8-1.5-2.3-.7-3 1.5-4 2.7-.9 1.2-3.3 1.4-3.3 1.4v13.3c8.4 0 11.6 5.6 13.3 7.3 1.7 1.7 10.1-.6 19.3-2.6 9.2-2 14.7-.7 17.5 0 2.8.7 2.9.2 3.1-2.1s-1.1-5.9-4.8-7.2zm-38.7-5.9c-1.3 0-2.3-1-2.3-2.3s1-2.3 2.3-2.3c1.3 0 2.3 1 2.3 2.3s-1 2.3-2.3 2.3zm7 2.1c-1.3 0-2.3-1-2.3-2.3s1-2.3 2.3-2.3c1.3 0 2.3 1 2.3 2.3s-1.1 2.3-2.3 2.3zm6.9 2.2c-1.3 0-2.3-1-2.3-2.3s1-2.3 2.3-2.3c1.3 0 2.3 1 2.3 2.3s-1 2.3-2.3 2.3zm7 2.2c-1.3 0-2.3-1-2.3-2.3s1-2.3 2.3-2.3c1.3 0 2.3 1 2.3 2.3s-1 2.3-2.3 2.3zm7 2.2c-1.3 0-2.3-1-2.3-2.3s1-2.3 2.3-2.3c1.3 0 2.3 1 2.3 2.3s-1.1 2.3-2.3 2.3zm6.9 2.2c-1.3 0-2.3-1-2.3-2.3 0-1.3 1-2.3 2.3-2.3 1.3 0 2.3 1 2.3 2.3 0 1.2-1 2.3-2.3 2.3z"/><circle class="st0" cx="206.7" cy="18.7" r="1.9"/></g></svg>