<svg id="Layer_1" xmlns="http://www.w3.org/2000/svg" viewBox="0 0 215.4 31.9"><style>.st0{fill:#ECF0F1;}</style><path class="st0" d="M135.5 21.1h-3.4l-5.5-9.5h-.1c.1 1.7.2 2.9.2 3.6v5.9h-2.4V8.5h3.4l5.5 9.4h.1c-.1-1.6-.1-2.8-.1-3.5v-6h2.4l-.1 12.7zM145.9 21.1h-7.2V8.5h7.2v2.2h-4.6v2.8h4.3v2.2h-4.3v3.2h4.6v2.2zM156 17.6c0 1.1-.4 2-1.2 2.7s-2 1-3.4 1c-1.3 0-2.5-.3-3.6-.8V18c.9.4 1.6.6 2.2.8.6.2 1.1.2 1.6.2.6 0 1-.1 1.3-.3.3-.2.5-.6.5-1 0-.2-.1-.5-.2-.7s-.3-.4-.6-.6-.8-.5-1.6-.9-1.3-.7-1.7-1-.7-.7-.9-1.2c-.2-.4-.3-1-.3-1.5 0-1.1.4-2 1.1-2.6.8-.6 1.8-1 3.1-1 .7 0 1.3.1 1.9.2.6.2 1.2.4 1.9.7l-.9 2.1c-.7-.3-1.2-.5-1.7-.6-.4-.1-.9-.2-1.3-.2-.5 0-.9.1-1.2.4-.3.2-.4.5-.4.9 0 .2.1.4.2.6.1.2.3.3.5.5s.8.5 1.7.9c1.2.6 2 1.1 2.4 1.7.4.7.6 1.4.6 2.2zM98.1 8.5H97l-3.4 6.3-3.3-6.3h-1.6l4.2 7.8v4.8h1.5v-4.9l3-5.5h4.9v10.4h2.7V10.7h3.4V8.5zM120.2 10c-1-1.1-2.5-1.7-4.4-1.7s-3.4.6-4.4 1.7-1.6 2.7-1.6 4.8.5 3.7 1.5 4.8 2.5 1.7 4.4 1.7 3.4-.6 4.4-1.7 1.5-2.7 1.5-4.8c.2-2.1-.3-3.7-1.4-4.8zm-4.4 9c-1.1 0-1.9-.4-2.4-1.1s-.8-1.8-.8-3.2.3-2.5.8-3.2 1.3-1.1 2.4-1.1c2.1 0 3.2 1.4 3.2 4.2 0 3-1.1 4.4-3.2 4.4zM76.3 21.1l-1.6-4h-5l-1.5 4h-1.5l5-12.6h1.2l4.9 12.6h-1.5zm-2-5.4l-1.5-3.9c-.2-.5-.4-1.1-.6-1.8-.1.6-.3 1.2-.5 1.8l-1.5 3.9h4.1zM85 15.4c1.7-.6 2.5-1.7 2.5-3.4 0-1.2-.4-2.1-1.1-2.7-.7-.6-1.9-.9-3.4-.9h-3.4v12.7H81v-5.2h2.6l3 5.2h1.7L85 15.4zm-2-.8h-2V9.8h1.9c1.1 0 1.9.2 2.4.6.5.4.7 1 .7 1.8s-.2 1.4-.7 1.8c-.5.4-1.3.6-2.3.6zM65.6 14.7c0 2.1-.6 3.7-1.7 4.8-1.1 1-2.8 1.6-4.9 1.6h-3.5V8.5h3.9c2 0 3.5.5 4.6 1.6 1 1.1 1.6 2.6 1.6 4.6zm-1.6 0c0-1.6-.4-2.9-1.2-3.7s-2-1.2-3.7-1.2H57v10h1.8c1.7 0 3.1-.4 3.9-1.3.9-.8 1.3-2.1 1.3-3.8zM39.5 21.1h-7V8.5h7v1.3H34v4.1h5.2v1.2H34v4.6h5.5v1.4zM52.1 21.1h-1.7l-6.9-10.6h-.1c.1 1.2.1 2.4.1 3.4v7.2h-1.4V8.5h1.7L50.7 19h.1c0-.2 0-.7-.1-1.5 0-.8-.1-1.4 0-1.8V8.5h1.4v12.6zM0 21.1V8.5h1.5v11.3H7v1.3H0zM16.2 21.1h-7V8.5h7v1.3h-5.5v4.1h5.2v1.2h-5.2v4.6h5.5v1.4zM24.5 14.5h4.3v6.1c-.7.2-1.3.4-2 .5s-1.5.2-2.4.2c-1.9 0-3.4-.6-4.4-1.7-1.1-1.1-1.6-2.7-1.6-4.8 0-1.3.3-2.5.8-3.4.5-1 1.3-1.7 2.3-2.3 1-.5 2.1-.8 3.5-.8 1.3 0 2.6.2 3.8.7l-.8 1.3c-1.1-.5-2.2-.7-3.3-.7-1.5 0-2.7.5-3.6 1.4s-1.3 2.2-1.3 3.8c0 1.7.4 3 1.2 3.9.8.9 2 1.3 3.6 1.3.9 0 1.7-.1 2.6-.3v-3.9h-2.8l.1-1.3zM209.6 16.9l.7-2c1.2.1 2.2-.4 2.5-1.3.3-1-.6-2.1-2-2.5-1.4-.4-2.7.2-3 1.2-.2.9.4 1.8 1.5 2.3l-.6 2c-.2-.1-.4-.1-.4-.1s-2.3-.7-5.7-1.7l.7-2c1.2.1 2.2-.4 2.5-1.3.3-1-.6-2.1-2-2.5s-2.7.2-3 1.2c-.2.9.4 1.8 1.5 2.3l-.6 2c-1.8-.6-3.9-1.2-6.2-1.9l.7-2c1.2.1 2.2-.4 2.5-1.3.3-1-.6-2.1-2-2.5-1.4-.4-2.7.2-3 1.2-.2.9.4 1.8 1.5 2.3l-.6 2c-2-.6-4.1-1.2-6.1-1.9l.7-2c1.2.1 2.2-.4 2.5-1.3.3-1-.6-2.1-2-2.5s-2.7.2-3 1.2c-.2.9.4 1.8 1.5 2.3l-.6 1.9c-2.1-.6-4.2-1.3-6.2-1.9l.7-2c1.2.1 2.2-.4 2.5-1.3.3-1-.6-2.1-2-2.5s-2.7.2-3 1.2c-.2.9.4 1.8 1.5 2.3l-.6 2c-2.3-.7-4.4-1.3-6.1-1.9l.6-2c1.2.1 2.2-.4 2.5-1.3.3-1-.6-2.1-2-2.5s-2.7.2-3 1.2c-.2.9.4 1.8 1.5 2.3l-.6 1.9c-2.3-.7-3.9-1.2-4.5-1.4-3.1-1-3.2.2-4.6 2.4-1.3 2.2-4.9 1.7-4.9 1.7v12.9c7.4-.1 11.1 4.3 12.7 5.8 1.5 1.6 1.6 2.5 2.4 2.4 2.4-.2 5.3-.6 10.8-1.9 5.4-1.3 8.5-1.9 11.2-2.3s3 .8 3.9 2.3c1.9 3.2 4.7 4.5 7 4.5 4 0 8-3.2 8-7.6-.7-4.5-3.9-6.6-5.8-7.4zm-39.1-6.7c-.9 0-1.6-.7-1.6-1.6 0-.9.7-1.6 1.6-1.6.9 0 1.6.7 1.6 1.6s-.7 1.6-1.6 1.6zm7.2 2.2c-.9 0-1.6-.7-1.6-1.6s.7-1.6 1.6-1.6c.9 0 1.6.7 1.6 1.6s-.7 1.6-1.6 1.6zm7.1 2.2c-.9 0-1.6-.7-1.6-1.6s.7-1.6 1.6-1.6c.9 0 1.6.7 1.6 1.6.1.8-.7 1.6-1.6 1.6zm7.2 2.2c-.9 0-1.6-.7-1.6-1.6 0-.9.7-1.6 1.6-1.6.9 0 1.6.7 1.6 1.6.1.9-.7 1.6-1.6 1.6zm7.2 2.2c-.9 0-1.6-.7-1.6-1.6s.7-1.6 1.6-1.6c.9 0 1.6.7 1.6 1.6 0 .9-.7 1.6-1.6 1.6zm7.2 2.2c-.9 0-1.6-.7-1.6-1.6s.7-1.6 1.6-1.6c.9 0 1.6.7 1.6 1.6 0 .8-.7 1.6-1.6 1.6zM170.5 7.4c-.7 0-1.2.5-1.2 1.2s.5 1.2 1.2 1.2 1.2-.5 1.2-1.2-.5-1.2-1.2-1.2zm7.2 2.2c-.7 0-1.2.5-1.2 1.2s.5 1.2 1.2 1.2 1.2-.5 1.2-1.2-.5-1.2-1.2-1.2zm7.1 2.1c-.7 0-1.2.5-1.2 1.2s.5 1.2 1.2 1.2 1.2-.5 1.2-1.2c.1-.6-.5-1.2-1.2-1.2zM192 14c-.7 0-1.2.5-1.2 1.2s.5 1.2 1.2 1.2 1.2-.5 1.2-1.2c.1-.7-.5-1.2-1.2-1.2zm7.2 2.2c-.7 0-1.2.5-1.2 1.2s.5 1.2 1.2 1.2 1.2-.5 1.2-1.2c.1-.7-.5-1.2-1.2-1.2zm7.2 2.1c-.7 0-1.2.5-1.2 1.2s.5 1.2 1.2 1.2 1.2-.5 1.2-1.2-.5-1.2-1.2-1.2z"/></svg>