<svg id="svg2" xmlns="http://www.w3.org/2000/svg" viewBox="0 0 1367.1 1367.1"><style>.st0{fill:#ECF0F1;}</style><path id="text2175" class="st0" d="M0 1054.6h36.1c2.6 46.2 16.3 78.3 41 96.5 24.7 18.2 64 27.3 118 27.3h266.2l-2-65.3c-103.4-20.8-197.6-78.3-282.8-172.6C91.3 846.2 48.8 727.3 48.8 583.6c0-159.3 59.3-295.1 178-407.6C345.3 63.5 500.2 7.3 691.4 7.3c185.3 0 336.7 53.1 454.4 159.4C1263.5 273 1322.3 409 1322.3 574.8c0 134.6-36.6 248.8-109.7 342.8-73.1 93.9-172.1 159.1-296.9 195.5l-9.8 65.3H1177c61.8 0 102.5-11.7 122.4-35.1 19.8-23.4 30.4-53 31.7-88.7h36.1v305.2H821l25.4-294.5c167.7-52.7 251.6-207.7 251.6-465.1 0-168.4-41.1-297.4-123.4-387.1C892.4 123.4 796 78.5 685.5 78.5c-117.7 0-215 47.6-292 142.9-77 95.2-115.6 217-115.6 365.2 0 107.3 17.2 204.9 51.7 293s100.4 150 197.9 185.8l18.5 294.5H0v-305.3z"/></svg>